HIERARCHY
ROOT pelvis
{
	OFFSET 0.000000 0.000000 0.000000
	CHANNELS 6 Xposition Yposition Zposition Zrotation Yrotation Xrotation
	JOINT left_hip
	{
		OFFSET 0.084821 -0.083004 -0.000000
		CHANNELS 3 Zrotation Yrotation Xrotation
		JOINT left_knee
		{
			OFFSET 0.000000 -0.386771 0.006791
			CHANNELS 3 Zrotation Yrotation Xrotation
			JOINT left_ankle
			{
				OFFSET 0.000000 -0.388474 -0.025097
				CHANNELS 3 Zrotation Yrotation Xrotation
				JOINT left_foot
				{
					OFFSET 0.000000 -0.064820 0.119049
					CHANNELS 3 Zrotation Yrotation Xrotation
				}
			}
		}
	}
	JOINT right_hip
	{
		OFFSET -0.084821 -0.083004 -0.000000
		CHANNELS 3 Zrotation Yrotation Xrotation
		JOINT right_knee
		{
			OFFSET 0.000000 -0.386771 0.006791
			CHANNELS 3 Zrotation Yrotation Xrotation
			JOINT right_ankle
			{
				OFFSET 0.000000 -0.388474 -0.025097
				CHANNELS 3 Zrotation Yrotation Xrotation
				JOINT right_foot
				{
					OFFSET 0.000000 -0.064820 0.119049
					CHANNELS 3 Zrotation Yrotation Xrotation
				}
			}
		}
	}
	JOINT spine1
	{
		OFFSET 0.000000 0.098682 0.000000
		CHANNELS 3 Zrotation Yrotation Xrotation
		JOINT spine2
		{
			OFFSET 0.000000 0.098682 0.000000
			CHANNELS 3 Zrotation Yrotation Xrotation
			JOINT spine3
			{
				OFFSET 0.000000 0.096615 -0.000000
				CHANNELS 3 Zrotation Yrotation Xrotation
				JOINT neck
				{
					OFFSET 0.000000 0.165863 -0.010039
					CHANNELS 3 Zrotation Yrotation Xrotation
					JOINT head
					{
						OFFSET 0.000000 0.168342 0.012908
						CHANNELS 3 Zrotation Yrotation Xrotation
					}
				}
				JOINT left_collar
				{
					OFFSET 0.046364 0.094944 -0.000000
					CHANNELS 3 Zrotation Yrotation Xrotation
					JOINT left_shoulder
					{
						OFFSET 0.118056 0.055135 -0.008675
						CHANNELS 3 Zrotation Yrotation Xrotation
						JOINT left_elbow
						{
							OFFSET 0.250723 -0.032799 -0.031858
							CHANNELS 3 Zrotation Yrotation Xrotation
							JOINT left_wrist
							{
								OFFSET 0.241129 -0.010016 -0.004689
								CHANNELS 3 Zrotation Yrotation Xrotation
								JOINT left_pinky1
								{
									OFFSET 0.088743 -0.012511 -0.034384
									CHANNELS 3 Zrotation Yrotation Xrotation
									JOINT left_pinky2
									{
										OFFSET 0.025397 0.000000 -0.000847
										CHANNELS 3 Zrotation Yrotation Xrotation
										JOINT left_pinky3
										{
											OFFSET 0.021605 0.000000 -0.000721
											CHANNELS 3 Zrotation Yrotation Xrotation
											End Site
											{
												OFFSET 0.000000 0.021617 0.000000
											}
										}
									}
								}
								JOINT left_ring1
								{
									OFFSET 0.099726 -0.007763 -0.013228
									CHANNELS 3 Zrotation Yrotation Xrotation
									JOINT left_ring2
									{
										OFFSET 0.032130 -0.002011 -0.001834
										CHANNELS 3 Zrotation Yrotation Xrotation
										JOINT left_ring3
										{
											OFFSET 0.024805 -0.001553 -0.001416
											CHANNELS 3 Zrotation Yrotation Xrotation
											End Site
											{
												OFFSET 0.000000 0.024894 0.000000
											}
										}
									}
								}
								JOINT left_middle1
								{
									OFFSET 0.105715 -0.006141 0.006129
									CHANNELS 3 Zrotation Yrotation Xrotation
									JOINT left_middle2
									{
										OFFSET 0.033278 -0.001323 -0.000868
										CHANNELS 3 Zrotation Yrotation Xrotation
										JOINT left_middle3
										{
											OFFSET 0.025347 -0.001008 -0.000661
											CHANNELS 3 Zrotation Yrotation Xrotation
											End Site
											{
												OFFSET 0.000000 0.025376 0.000000
											}
										}
									}
								}
								JOINT left_index1
								{
									OFFSET 0.103060 -0.008307 0.026821
									CHANNELS 3 Zrotation Yrotation Xrotation
									JOINT left_index2
									{
										OFFSET 0.031407 -0.001304 -0.000135
										CHANNELS 3 Zrotation Yrotation Xrotation
										JOINT left_index3
										{
											OFFSET 0.023007 -0.000955 -0.000099
											CHANNELS 3 Zrotation Yrotation Xrotation
											End Site
											{
												OFFSET 0.000000 0.023027 0.000000
											}
										}
									}
								}
								JOINT left_thumb1
								{
									OFFSET 0.039126 -0.015460 0.032006
									CHANNELS 3 Zrotation Yrotation Xrotation
									JOINT left_thumb2
									{
										OFFSET 0.020179 -0.001931 0.016857
										CHANNELS 3 Zrotation Yrotation Xrotation
										JOINT left_thumb3
										{
											OFFSET 0.020952 -0.002004 0.017502
											CHANNELS 3 Zrotation Yrotation Xrotation
											End Site
											{
												OFFSET 0.000000 0.027373 0.000000
											}
										}
									}
								}
							}
						}
					}
				}
				JOINT right_collar
				{
					OFFSET -0.046364 0.094942 -0.000000
					CHANNELS 3 Zrotation Yrotation Xrotation
					JOINT right_shoulder
					{
						OFFSET -0.118056 0.055140 -0.008675
						CHANNELS 3 Zrotation Yrotation Xrotation
						JOINT right_elbow
						{
							OFFSET -0.250723 -0.032800 -0.031858
							CHANNELS 3 Zrotation Yrotation Xrotation
							JOINT right_wrist
							{
								OFFSET -0.241129 -0.010020 -0.004689
								CHANNELS 3 Zrotation Yrotation Xrotation
								JOINT right_pinky1
								{
									OFFSET -0.088743 -0.012509 -0.034384
									CHANNELS 3 Zrotation Yrotation Xrotation
									JOINT right_pinky2
									{
										OFFSET -0.025397 0.000000 -0.000847
										CHANNELS 3 Zrotation Yrotation Xrotation
										JOINT right_pinky3
										{
											OFFSET -0.021605 0.000000 -0.000721
											CHANNELS 3 Zrotation Yrotation Xrotation
											End Site
											{
												OFFSET 0.000000 0.021617 0.000000
											}
										}
									}
								}
								JOINT right_ring1
								{
									OFFSET -0.099726 -0.007761 -0.013228
									CHANNELS 3 Zrotation Yrotation Xrotation
									JOINT right_ring2
									{
										OFFSET -0.032130 -0.002011 -0.001834
										CHANNELS 3 Zrotation Yrotation Xrotation
										JOINT right_ring3
										{
											OFFSET -0.024805 -0.001560 -0.001416
											CHANNELS 3 Zrotation Yrotation Xrotation
											End Site
											{
												OFFSET 0.000000 0.024894 0.000000
											}
										}
									}
								}
								JOINT right_middle1
								{
									OFFSET -0.105715 -0.006139 0.006129
									CHANNELS 3 Zrotation Yrotation Xrotation
									JOINT right_middle2
									{
										OFFSET -0.033278 -0.001323 -0.000868
										CHANNELS 3 Zrotation Yrotation Xrotation
										JOINT right_middle3
										{
											OFFSET -0.025347 -0.001008 -0.000661
											CHANNELS 3 Zrotation Yrotation Xrotation
											End Site
											{
												OFFSET 0.000000 0.025376 0.000000
											}
										}
									}
								}
								JOINT right_index1
								{
									OFFSET -0.103060 -0.008310 0.026821
									CHANNELS 3 Zrotation Yrotation Xrotation
									JOINT right_index2
									{
										OFFSET -0.031407 -0.001300 -0.000135
										CHANNELS 3 Zrotation Yrotation Xrotation
										JOINT right_index3
										{
											OFFSET -0.023007 -0.000950 -0.000099
											CHANNELS 3 Zrotation Yrotation Xrotation
											End Site
											{
												OFFSET 0.000000 0.023027 0.000000
											}
										}
									}
								}
								JOINT right_thumb1
								{
									OFFSET -0.039126 -0.015460 0.032006
									CHANNELS 3 Zrotation Yrotation Xrotation
									JOINT right_thumb2
									{
										OFFSET -0.020179 -0.001930 0.016857
										CHANNELS 3 Zrotation Yrotation Xrotation
										JOINT right_thumb3
										{
											OFFSET -0.020952 -0.002000 0.017502
											CHANNELS 3 Zrotation Yrotation Xrotation
											End Site
											{
												OFFSET 0.000000 0.027373 0.000000
											}
										}
									}
								}
							}
						}
					}
				}
			}
		}
	}
}
MOTION
Frames: 4
Frame Time: 0.041667
0.0 0.919942 0.0 1.135569 17.721949 -7.569167 0.432236 -4.422001 22.982204 0.002719 -0.01269 9.884539 1.261253 0.45933 18.110163 0.022606 0.041473 0.642699 -1.482158 -15.366838 -16.359686 -0.003466 0.006366 4.927468 -4.652177 -14.498407 16.000761 0.237878 -0.567268 0.571159 -0.267554 0.008825 4.86205 0.682461 -1.053017 3.824431 2.969646 -20.231026 -6.463708 -2.68757 0.611842 17.478767 0.0 0.0 0.0 -22.180708 2.924837 -12.115671 -45.633808 -0.142157 10.720032 0.005756 -24.339918 -0.003798 -0.311804 -0.560957 -0.029827 -92.57014924610442 0.0 0.0 -92.57014924610442 0.0 0.0 -92.57014924610442 0.0 0.0 -85.08342262441943 0.0 0.0 -85.08342262441943 0.0 0.0 -85.08342262441943 0.0 0.0 -84.37379091587039 0.0 0.0 -84.37379091587039 0.0 0.0 -84.37379091587039 0.0 0.0 -90.97746009288186 0.0 0.0 -90.97746009288186 0.0 0.0 -90.97746009288186 0.0 0.0 -18.243829354300512 27.68685741440712 17.890591193034 -13.914816527634306 34.63166592994157 14.925771269364267 -5.325529397709519 53.75054957052526 21.00296897703599 23.737774 -3.503231 -7.541389 47.813213 -6.755671 -0.453946 -0.006099 16.991125 -0.002201 0.146485 0.425186 -0.021757 92.57014924610442 -0.0 0.0 92.57014924610442 -0.0 0.0 92.57014924610442 -0.0 0.0 85.08342262441943 -0.0 0.0 85.08342262441943 -0.0 0.0 85.08342262441943 -0.0 0.0 84.37379091587039 -0.0 0.0 84.37379091587039 -0.0 0.0 84.37379091587039 -0.0 0.0 90.97746009288186 -0.0 0.0 90.97746009288186 -0.0 0.0 90.97746009288186 -0.0 0.0 18.243829354300512 -27.68685741440712 17.890591193034 13.914816527634306 -34.63166592994157 14.925771269364267 5.325529397709519 -53.75054957052526 21.00296897703599
-0.003642 0.928781 0.067339 0.299647 17.448327 -6.865214 0.999978 -6.907785 21.332803 0.0008 -0.021238 16.714425 1.854403 2.83074 16.88937 -0.021635 0.131024 0.583422 0.072322 -15.42148 -14.830852 -0.003244 0.008796 6.828782 -4.432793 -13.533113 15.928983 0.21961 -0.531756 0.565064 0.383522 -0.035634 4.020515 0.995528 -1.036657 3.439695 3.043087 -19.453476 -6.628014 -2.634933 0.640879 17.51136 0.0 0.0 0.0 -22.497492 3.132947 -11.704929 -46.572473 0.864238 10.834296 0.00578 -24.28737 -0.003814 -0.310048 -0.560369 -0.030507 -92.57014924610442 0.0 0.0 -92.57014924610442 0.0 0.0 -92.57014924610442 0.0 0.0 -85.08342262441943 0.0 0.0 -85.08342262441943 0.0 0.0 -85.08342262441943 0.0 0.0 -84.37379091587039 0.0 0.0 -84.37379091587039 0.0 0.0 -84.37379091587039 0.0 0.0 -90.97746009288186 0.0 0.0 -90.97746009288186 0.0 0.0 -90.97746009288186 0.0 0.0 -18.243829354300512 27.68685741440712 17.890591193034 -13.914816527634306 34.63166592994157 14.925771269364267 -5.325529397709519 53.75054957052526 21.00296897703599 23.698288 -3.77284 -6.884371 47.439296 -7.178822 -0.461136 -0.006113 16.846865 -0.00222 0.142828 0.422435 -0.023258 92.57014924610442 -0.0 0.0 92.57014924610442 -0.0 0.0 92.57014924610442 -0.0 0.0 85.08342262441943 -0.0 0.0 85.08342262441943 -0.0 0.0 85.08342262441943 -0.0 0.0 84.37379091587039 -0.0 0.0 84.37379091587039 -0.0 0.0 84.37379091587039 -0.0 0.0 90.97746009288186 -0.0 0.0 90.97746009288186 -0.0 0.0 90.97746009288186 -0.0 0.0 18.243829354300512 -27.68685741440712 17.890591193034 13.914816527634306 -34.63166592994157 14.925771269364267 5.325529397709519 -53.75054957052526 21.00296897703599
-0.007324 0.937142 0.132293 -0.182459 15.980825 -6.457902 1.502002 -6.994335 18.09006 -0.003198 -0.031937 25.607128 2.536179 5.362298 15.951858 -0.066833 0.228171 0.531111 1.344832 -15.147205 -12.366951 -0.003065 0.010312 8.016195 -3.932993 -11.495542 15.604187 0.180829 -0.456226 0.551175 0.774 -0.058579 3.593226 1.212069 -0.939937 3.278139 2.930483 -17.174624 -6.431093 -2.57703 0.606836 17.583584 0.0 0.0 0.0 -22.609268 3.16623 -11.264657 -47.308499 2.013297 11.270206 0.00569 -24.159231 -0.003758 -0.310085 -0.556519 -0.030355 -92.57014924610442 0.0 0.0 -92.57014924610442 0.0 0.0 -92.57014924610442 0.0 0.0 -85.08342262441943 0.0 0.0 -85.08342262441943 0.0 0.0 -85.08342262441943 0.0 0.0 -84.37379091587039 0.0 0.0 -84.37379091587039 0.0 0.0 -84.37379091587039 0.0 0.0 -90.97746009288186 0.0 0.0 -90.97746009288186 0.0 0.0 -90.97746009288186 0.0 0.0 -18.243829354300512 27.68685741440712 17.890591193034 -13.914816527634306 34.63166592994157 14.925771269364267 -5.325529397709519 53.75054957052526 21.00296897703599 23.623282 -3.645959 -6.219872 46.997471 -7.129251 -0.076098 -0.006142 16.838793 -0.002227 0.141601 0.42263 -0.023225 92.57014924610442 -0.0 0.0 92.57014924610442 -0.0 0.0 92.57014924610442 -0.0 0.0 85.08342262441943 -0.0 0.0 85.08342262441943 -0.0 0.0 85.08342262441943 -0.0 0.0 84.37379091587039 -0.0 0.0 84.37379091587039 -0.0 0.0 84.37379091587039 -0.0 0.0 90.97746009288186 -0.0 0.0 90.97746009288186 -0.0 0.0 90.97746009288186 -0.0 0.0 18.243829354300512 -27.68685741440712 17.890591193034 13.914816527634306 -34.63166592994157 14.925771269364267 5.325529397709519 -53.75054957052526 21.00296897703599
-0.009856 0.944319 0.193274 -0.092793 13.039708 -6.401643 1.435989 -4.931967 13.567453 -0.009139 -0.042388 34.968415 3.132316 7.361858 12.939081 -0.094016 0.309156 0.401853 1.99518 -13.653312 -8.786045 -0.003037 0.010525 8.18419 -3.708885 -10.572681 14.764238 0.160595 -0.423164 0.519759 0.714294 -0.056052 3.66526 1.256057 -0.7601 3.33786 2.696965 -13.4255 -6.116372 -2.515082 0.546007 17.682626 0.0 0.0 0.0 -22.940791 3.217809 -11.056708 -47.599521 3.319158 12.005108 0.005471 -23.959277 -0.003626 -0.31248 -0.549166 -0.02941 -92.57014924610442 0.0 0.0 -92.57014924610442 0.0 0.0 -92.57014924610442 0.0 0.0 -85.08342262441943 0.0 0.0 -85.08342262441943 0.0 0.0 -85.08342262441943 0.0 0.0 -84.37379091587039 0.0 0.0 -84.37379091587039 0.0 0.0 -84.37379091587039 0.0 0.0 -90.97746009288186 0.0 0.0 -90.97746009288186 0.0 0.0 -90.97746009288186 0.0 0.0 -18.243829354300512 27.68685741440712 17.890591193034 -13.914816527634306 34.63166592994157 14.925771269364267 -5.325529397709519 53.75054957052526 21.00296897703599 23.763111 -3.048676 -5.759532 46.382435 -6.674436 0.526124 -0.006199 16.940183 -0.002234 0.141757 0.425402 -0.022242 92.57014924610442 -0.0 0.0 92.57014924610442 -0.0 0.0 92.57014924610442 -0.0 0.0 85.08342262441943 -0.0 0.0 85.08342262441943 -0.0 0.0 85.08342262441943 -0.0 0.0 84.37379091587039 -0.0 0.0 84.37379091587039 -0.0 0.0 84.37379091587039 -0.0 0.0 90.97746009288186 -0.0 0.0 90.97746009288186 -0.0 0.0 90.97746009288186 -0.0 0.0 18.243829354300512 -27.68685741440712 17.890591193034 13.914816527634306 -34.63166592994157 14.925771269364267 5.325529397709519 -53.75054957052526 21.00296897703599
